<svg width="60" height="60" viewBox="0 0 60 60" fill="none" xmlns="http://www.w3.org/2000/svg">
<path d="M18.8688 54.3771C41.5104 54.3771 53.8944 35.6187 53.8944 19.3515C53.8944 18.8187 53.8944 18.2883 53.8584 17.7603C56.2676 16.0177 58.3473 13.8601 60 11.3883C57.7535 12.3843 55.3701 13.0372 52.9296 13.3251C55.4995 11.7869 57.4229 9.3671 58.3416 6.51634C55.9252 7.95036 53.2816 8.96091 50.5248 9.50435C48.6688 7.53079 46.2141 6.22395 43.5405 5.78606C40.8669 5.34816 38.1236 5.80363 35.7349 7.08198C33.3463 8.36032 31.4456 10.3903 30.3269 12.8577C29.2082 15.3252 28.9339 18.0925 29.5464 20.7315C24.6522 20.486 19.8644 19.2141 15.4936 16.9984C11.1229 14.7826 7.26691 11.6725 4.176 7.86994C2.60182 10.5799 2.11968 13.788 2.82775 16.841C3.53582 19.894 5.38085 22.5623 7.9872 24.3027C6.02808 24.2453 4.11162 23.7168 2.4 22.7619V22.9179C2.40078 25.7601 3.38463 28.5144 5.18468 30.7139C6.98473 32.9133 9.49015 34.4224 12.276 34.9851C10.4637 35.4795 8.56219 35.5517 6.7176 35.1963C7.50454 37.6422 9.03607 39.7809 11.0981 41.3137C13.1601 42.8464 15.6496 43.6965 18.2184 43.7451C15.6661 45.7513 12.7433 47.2346 9.61719 48.1101C6.49109 48.9857 3.22304 49.2362 0 48.8475C5.62958 52.4601 12.1798 54.3763 18.8688 54.3675" fill="white"/>
</svg>
